<svg width="284" height="212" viewBox="0 0 284 212" fill="none" xmlns="http://www.w3.org/2000/svg">
<path d="M0 126.453H22.6184V46.5492C22.6184 38.4856 24.396 32.1324 27.9512 27.4897C31.5064 22.9692 37.207 20.7089 45.0529 20.7089C52.8989 20.7089 58.5994 22.9692 62.1546 27.4897C65.7098 32.1324 67.4874 38.4856 67.4874 46.5492V126.453H90.1058V46.5492C90.1058 32.4989 86.3667 21.1976 78.8886 12.6453C71.4104 4.21509 60.1318 0 45.0529 0C29.8514 0 18.5115 4.21509 11.0334 12.6453C3.67779 21.1976 0 32.4989 0 46.5492V126.453Z" fill="#9C3B4D"/>
<path d="M118.882 126.453H141.5V46.5492C141.5 38.4856 143.278 32.1324 146.833 27.4897C150.388 22.9692 156.089 20.7089 163.935 20.7089C171.781 20.7089 177.481 22.9692 181.036 27.4897C184.591 32.1324 186.369 38.4856 186.369 46.5492V126.453H208.987V46.5492C208.987 32.4989 205.248 21.1976 197.77 12.6453C190.292 4.21509 179.013 0 163.935 0C148.733 0 137.393 4.21509 129.915 12.6453C122.559 21.1976 118.882 32.4989 118.882 46.5492V126.453Z" fill="#9C3B4D"/>
<path d="M262.772 1.83265H240.706V126.453H262.772V1.83265Z" fill="#1F2E33"/>
<path d="M93.4503 87.38V212H134.642C147.759 212 157.566 208.701 164.064 202.104C170.684 195.506 173.994 186.709 173.994 175.714V166.001C173.994 155.005 170.684 146.147 164.064 139.427C157.566 132.83 147.759 129.531 134.642 129.531H115.517V87.38H93.4503ZM134.642 190.925H115.517V150.606H134.642C140.036 150.606 144.143 151.95 146.962 154.638C149.904 157.326 151.375 161.114 151.375 166.001V175.714C151.375 180.478 149.904 184.205 146.962 186.893C144.143 189.581 140.036 190.925 134.642 190.925Z" fill="#49BEFF" fill-opacity="0.8"/>
<path d="M284 108.455V87.38H211.915V212H233.982V108.455H284Z" fill="#49BEFF" fill-opacity="0.8"/>
</svg>
